<svg xmlns="http://www.w3.org/2000/svg" viewBox="0 0 256 256" width="256" height="256">
  <mask id="m" x="0" y="0" width="256" height="256">
    <path fill="#fff" fill-rule="evenodd" clip-rule="evenodd"
      d="M181.534 254.252a15.98 15.98 0 0 0 12.737-.489l52.933-25.469a16 16 0 0 0 9.062-14.428V42.134a16 16 0 0 0-9.062-14.428L193.271 2.237a15.98 15.98 0 0 0-18.243 3.104L73.72 97.741l-44.139-33.5a10.68 10.68 0 0 0-13.645.605L2.163 77.512c-4.504 4.095-4.509 11.184-.01 15.286L40.115 128 2.153 163.202c-4.499 4.102-4.494 11.191.01 15.286l13.773 12.666a10.68 10.68 0 0 0 13.645.605l44.139-33.5 101.308 92.4a15.94 15.94 0 0 0 5.506 3.593ZM192.04 69.878 115.147 128l76.893 58.122z"/>
  </mask>
  <g mask="url(#m)">
    <path fill="#0065A9" d="M246.34 27.751 193.36 2.242a15.98 15.98 0 0 0-18.246 3.103L2.14 163.202c-4.499 4.102-4.494 11.191.01 15.286l14.16 12.856c3.699 3.361 9.29 3.605 13.272.58L241.211 30.865c7.109-5.398 17.313-.328 17.313 8.594v-.622a16 16 0 0 0-12.184-15.086Z"/>
    <path fill="#007ACC" d="m246.34 228.249-52.98 25.509a15.98 15.98 0 0 1-18.246-3.103L2.14 92.798c-4.499-4.102-4.494-11.191.01-15.286l14.16-12.856c3.699-3.361 9.29-3.605 13.272-.58L241.211 225.135c7.109 5.398 17.313.328 17.313-8.594v.622a16 16 0 0 1-12.184 15.086Z"/>
    <path fill="#1F9CF0" d="M193.363 253.759a15.98 15.98 0 0 1-18.248-3.105c5.912 5.911 16.021 1.726 16.021-6.634V11.98c0-8.36-10.109-12.546-16.021-6.634a15.98 15.98 0 0 1 18.248-3.105l52.971 25.475A16 16 0 0 1 255.4 42.14v171.72a16 16 0 0 1-9.066 14.428z"/>
  </g>
</svg>
